<svg width="400" height="400" viewBox="0 0 400 400" fill="none" xmlns="http://www.w3.org/2000/svg">
<path fill-rule="evenodd" clip-rule="evenodd" d="M350.024 36.6863C350.024 33.3431 348.158 29.7865 345.491 28.0474C343.555 26.7849 331.778 26.6741 199.931 26.6741C63.0531 26.6741 54.0563 26.3623 52.2532 29.8113C51.9761 30.3414 51.8689 30.9605 51.4933 31.6831C48.9887 36.503 49.7164 38.5638 60.4374 57.0301C81.0612 92.551 92.1113 111.776 92.1113 112.136C92.1113 112.34 72.9445 112.506 49.518 112.506C7.59203 112.506 6.88948 112.533 4.7014 114.246C2.04859 116.322 -0.000488281 120.011 -0.000488281 122.71C-0.000488281 124.52 5.06733 133.778 21.0981 161.255C24.5741 167.213 32.3023 180.525 38.272 190.837C44.2416 201.15 55.5438 220.649 63.3883 234.17C71.2329 247.69 86.7789 274.502 97.9336 293.752C109.089 313.001 119.994 331.751 122.167 335.418C124.34 339.084 129.8 348.489 134.3 356.317C143.13 371.676 144.721 373.333 150.635 373.333C153.206 373.333 154.661 372.766 156.517 371.042C157.873 369.781 166.016 356.563 174.611 341.667C198.25 300.701 199.643 298.335 200.115 298.337C200.355 298.339 202.431 301.621 204.728 305.629C228.608 347.305 241.615 369.134 243.705 371.042C245.661 372.827 247.042 373.333 249.957 373.333C255.404 373.333 257.403 371.072 267.634 353.334C277.921 335.498 286.961 319.897 317.337 267.562C329.422 246.74 347.039 216.366 356.486 200.063C365.934 183.76 378.593 161.984 384.618 151.671C400.682 124.175 400.744 124.045 399.549 120.075C399.007 118.271 397.409 115.83 396.001 114.651L393.44 112.506H350.708C316.864 112.506 308.061 112.289 308.382 111.464C308.775 110.457 314.257 100.934 338.574 59.0192C346.586 45.2087 350.024 38.5021 350.024 36.6863ZM137.748 96.5076C132.682 87.7311 127.682 78.928 126.637 76.9447L124.737 73.3397H200.194H275.65L272.852 78.2163C271.314 80.8988 266.286 89.6944 261.681 97.7609L253.307 112.429L200.133 112.446L146.96 112.465L137.748 96.5076ZM80.4215 169.588C78.2543 165.921 76.0252 162.071 75.4675 161.033L74.4526 159.145L97.1774 159.366L119.902 159.588L146.237 204.935C162.542 233.013 172.382 250.774 172.074 251.574C171.483 253.104 151.562 287.603 150.683 288.618C150.349 289.003 148.02 285.815 145.506 281.535C137.536 267.961 119.673 237.243 101.731 206.254C92.1775 189.754 82.5886 173.254 80.4215 169.588ZM200.276 202.821C199.761 203.128 176.658 163.962 175.389 160.63C174.867 159.26 176.384 159.171 200.133 159.171C221.605 159.171 225.365 159.35 224.979 160.35C224.729 161 220.101 169.155 214.696 178.475C209.291 187.795 203.962 197.01 202.852 198.955C201.744 200.898 200.584 202.638 200.276 202.821ZM257.465 198.754C268.853 179.046 278.707 162.078 279.365 161.046C280.555 159.179 280.648 159.171 302.821 159.171C323.566 159.171 325.044 159.27 324.527 160.61C324.012 161.945 317.603 173.103 294.717 212.503C289.792 220.982 277.953 241.42 268.408 257.919C258.864 274.419 250.765 288.224 250.41 288.597C249.769 289.273 227.767 252.405 227.767 250.654C227.767 250.146 229.791 246.324 232.264 242.159C234.738 237.994 246.079 218.462 257.465 198.754Z" fill="#EC1B2E"/>
</svg>
