<svg width="24" height="24" viewBox="0 0 24 24" fill="none" xmlns="http://www.w3.org/2000/svg">
<path d="M12 21.0001C10.7369 19.9227 9.56619 18.7416 8.5 17.4691C6.9 15.5581 5 12.7121 5 10.0001C4.99931 8.61505 5.40951 7.26094 6.17869 6.10912C6.94788 4.9573 8.04147 4.05955 9.32107 3.52949C10.6007 2.99943 12.0087 2.86088 13.3671 3.13138C14.7255 3.40189 15.9731 4.06928 16.952 5.04909C17.6038 5.69795 18.1203 6.46963 18.4719 7.31947C18.8234 8.1693 19.0029 9.08042 19 10.0001C19 12.7121 17.1 15.5581 15.5 17.4691C14.4338 18.7416 13.2631 19.9227 12 21.0001ZM12 7.00009C11.2044 7.00009 10.4413 7.31616 9.87868 7.87877C9.31607 8.44138 9 9.20444 9 10.0001C9 10.7957 9.31607 11.5588 9.87868 12.1214C10.4413 12.684 11.2044 13.0001 12 13.0001C12.7957 13.0001 13.5587 12.684 14.1213 12.1214C14.6839 11.5588 15 10.7957 15 10.0001C15 9.20444 14.6839 8.44138 14.1213 7.87877C13.5587 7.31616 12.7957 7.00009 12 7.00009Z" fill="#EC1B2E"/>
</svg>
