<svg width="60" height="60" viewBox="0 0 60 60" fill="none" xmlns="http://www.w3.org/2000/svg">
<path fill-rule="evenodd" clip-rule="evenodd" d="M52.5037 5.50294C52.5037 5.00145 52.2237 4.46796 51.8237 4.20709C51.5333 4.01772 49.7667 4.0011 29.9897 4.0011C9.45805 4.0011 8.10852 3.95433 7.83806 4.47168C7.79648 4.5512 7.78041 4.64406 7.72408 4.75246C7.34838 5.47544 7.45754 5.78456 9.06568 8.5545C12.1593 13.8826 13.8168 16.7665 13.8168 16.8205C13.8168 16.851 10.9417 16.8758 7.42777 16.8758C1.13888 16.8758 1.03349 16.88 0.705284 17.1368C0.307361 17.4483 0 18.0017 0 18.4064C0 18.678 0.760173 20.0668 3.16479 24.1882C3.68619 25.0819 4.84541 27.0787 5.74087 28.6256C6.63632 30.1724 8.33164 33.0974 9.50832 35.1254C10.685 37.1535 13.0169 41.1753 14.6901 44.0628C16.3634 46.9502 17.9992 49.7626 18.3251 50.3126C18.651 50.8626 19.4701 52.2733 20.1451 53.4476C21.4696 55.7514 21.7083 56 22.5953 56C22.9809 56 23.1992 55.9149 23.4776 55.6563C23.6811 55.4671 24.9025 53.4844 26.1917 51.2501C29.7376 45.1051 29.9466 44.7502 30.0173 44.7506C30.0534 44.7509 30.3647 45.2431 30.7093 45.8443C34.2912 52.0957 36.2423 55.3701 36.5558 55.6563C36.8492 55.924 37.0564 56 37.4937 56C38.3106 56 38.6105 55.6608 40.1451 53.0001C41.6882 50.3246 43.0443 47.9845 47.6006 40.1342C49.4134 37.011 52.0559 32.4549 53.473 30.0094C54.8901 27.564 56.789 24.2975 57.6928 22.7507C60.1024 18.6263 60.1117 18.6067 59.9325 18.0113C59.8511 17.7407 59.6114 17.3744 59.4002 17.1976L59.0161 16.8758H52.6062C47.5297 16.8758 46.2092 16.8433 46.2574 16.7196C46.3163 16.5686 47.1387 15.1401 50.7862 8.85287C51.988 6.78129 52.5037 5.77531 52.5037 5.50294ZM20.6623 14.4761C19.9024 13.1597 19.1524 11.8392 18.9957 11.5417L18.7107 11.0009H30.0291H41.3476L40.9279 11.7324C40.6972 12.1348 39.943 13.4541 39.2522 14.6641L37.9961 16.8643L30.0201 16.8669L22.044 16.8697L20.6623 14.4761ZM12.0633 25.4381C11.7382 24.8882 11.4039 24.3107 11.3202 24.1549L11.168 23.8717L14.5767 23.9049L17.9854 23.9382L21.9356 30.7403C24.3814 34.9519 25.8573 37.6161 25.8111 37.736C25.7225 37.9656 22.7344 43.1404 22.6025 43.2926C22.5524 43.3504 22.203 42.8723 21.826 42.2302C20.6304 40.1942 17.951 35.5864 15.2597 30.938C13.8267 28.4631 12.3884 25.9881 12.0633 25.4381ZM30.0414 30.4232C29.9642 30.4692 26.4988 24.5943 26.3084 24.0944C26.2301 23.8891 26.4577 23.8757 30.0201 23.8757C33.2408 23.8757 33.8049 23.9024 33.7469 24.0525C33.7094 24.1499 33.0153 25.3733 32.2045 26.7712C31.3937 28.1692 30.5943 29.5516 30.4279 29.8432C30.2616 30.1347 30.0876 30.3957 30.0414 30.4232ZM38.6199 29.8131C40.328 26.8569 41.8061 24.3117 41.9047 24.1569C42.0834 23.8768 42.0973 23.8757 45.4232 23.8757C48.535 23.8757 48.7567 23.8904 48.6791 24.0915C48.6019 24.2918 47.6405 25.9654 44.2076 31.8755C43.4689 33.1474 41.6931 36.2129 40.2613 38.6879C38.8296 41.1628 37.6148 43.2335 37.5616 43.2895C37.4654 43.3909 34.1651 37.8608 34.1651 37.598C34.1651 37.5219 34.4687 36.9485 34.8397 36.3238C35.2108 35.6991 36.9119 32.7692 38.6199 29.8131Z" fill="#EC1B2E"/>
</svg>
