<svg width="30" height="30" viewBox="0 0 30 30" fill="none" xmlns="http://www.w3.org/2000/svg">
<g clip-path="url(#clip0_9901_260)">
<path fill-rule="evenodd" clip-rule="evenodd" d="M26.7031 18.4468C26.7031 18.4468 29.1286 20.8423 29.7286 21.9508C29.7403 21.9668 29.7494 21.9845 29.7556 22.0033C30.0001 22.4128 30.0601 22.7338 29.9401 22.9708C29.7376 23.3623 29.0521 23.5588 28.8196 23.5753H24.5326C24.2341 23.5753 23.6131 23.4973 22.8571 22.9753C22.2796 22.5718 21.7051 21.9073 21.1486 21.2578C20.3176 20.2933 19.5991 19.4563 18.8716 19.4563C18.7798 19.4561 18.6885 19.4713 18.6016 19.5013C18.0511 19.6753 17.3521 20.4598 17.3521 22.5493C17.3521 23.2033 16.8361 23.5753 16.4746 23.5753H14.5111C13.8421 23.5753 10.3591 23.3413 7.27064 20.0848C3.48614 16.0978 0.0871351 8.09982 0.0541351 8.02932C-0.157365 7.51182 0.286635 7.22982 0.766635 7.22982H5.09564C5.67614 7.22982 5.86514 7.58082 5.99714 7.89582C6.15014 8.25732 6.71714 9.70332 7.64714 11.3278C9.15314 13.9708 10.0786 15.0463 10.8181 15.0463C10.9571 15.0467 11.0937 15.0105 11.2141 14.9413C12.1801 14.4103 12.0001 10.9603 11.9551 10.2493C11.9551 10.1113 11.9536 8.70882 11.4586 8.03082C11.1046 7.54482 10.5016 7.35582 10.1371 7.28682C10.2346 7.14582 10.4416 6.92982 10.7071 6.80232C11.3686 6.47232 12.5641 6.42432 13.7506 6.42432H14.4091C15.6961 6.44232 16.0291 6.52482 16.4971 6.64332C17.4391 6.86832 17.4571 7.47882 17.3746 9.55782C17.3506 10.1518 17.3251 10.8208 17.3251 11.6083C17.3251 11.7763 17.3176 11.9638 17.3176 12.1543C17.2891 13.2208 17.2516 14.4223 18.0046 14.9158C18.1023 14.9767 18.2151 15.0089 18.3301 15.0088C18.5911 15.0088 19.3726 15.0088 21.4921 11.3713C22.4221 9.76482 23.1421 7.87032 23.1916 7.72782C23.2336 7.64832 23.3596 7.42482 23.5126 7.33482C23.6215 7.27691 23.7434 7.24798 23.8666 7.25082H28.9591C29.5141 7.25082 29.8906 7.33482 29.9641 7.54482C30.0871 7.88532 29.9401 8.92482 27.6151 12.0688C27.2236 12.5923 26.8801 13.0453 26.5786 13.4413C24.4711 16.2073 24.4711 16.3468 26.7031 18.4468Z" fill="#EC1B2E"/>
</g>
<defs>
<clipPath id="clip0_9901_260">
<rect width="30" height="30" fill="white"/>
</clipPath>
</defs>
</svg>
