<svg width="30" height="30" viewBox="0 0 30 30" fill="none" xmlns="http://www.w3.org/2000/svg">
<path d="M20.955 27.0542C15.9581 27.0542 11.9062 23.6792 11.9062 19.5204C11.9062 15.3579 15.9544 11.9829 20.9513 11.9829C25.9481 11.9829 30 15.3579 30 19.5204C30 21.7892 28.7812 23.8348 26.8763 25.2129C26.7703 25.2882 26.6912 25.3954 26.6507 25.519C26.6102 25.6425 26.6104 25.7758 26.6513 25.8992L27.06 27.4179C27.0853 27.4891 27.1035 27.5626 27.1144 27.6373C27.1125 27.7172 27.0799 27.7934 27.0233 27.85C26.9667 27.9065 26.8906 27.9391 26.8106 27.941C26.749 27.9387 26.6893 27.9192 26.6381 27.8848L24.6562 26.741C24.5111 26.6538 24.3456 26.606 24.1763 26.6023C24.0861 26.6028 23.9964 26.616 23.91 26.6417C22.9493 26.9174 21.9545 27.0563 20.955 27.0542ZM16.995 17.891C17.1091 18.0661 17.2665 18.2088 17.4519 18.3052C17.6374 18.4016 17.8446 18.4485 18.0534 18.4412C18.2623 18.434 18.4658 18.3729 18.6441 18.2639C18.8224 18.155 18.9696 18.0017 19.0713 17.8192C19.173 17.6366 19.2258 17.4308 19.2246 17.2218C19.2233 17.0128 19.1682 16.8077 19.0644 16.6263C18.9605 16.4449 18.8116 16.2934 18.6321 16.1865C18.4525 16.0796 18.2483 16.0208 18.0394 16.016C17.8801 16.0158 17.7223 16.047 17.5751 16.1079C17.4279 16.1688 17.2942 16.2582 17.1817 16.3709C17.0691 16.4836 16.98 16.6175 16.9193 16.7648C16.8586 16.9121 16.8276 17.0699 16.8281 17.2292C16.8162 17.4618 16.8751 17.6925 16.9969 17.891H16.995ZM23.055 17.8929C23.1697 18.068 23.3278 18.2103 23.5138 18.3061C23.6999 18.4019 23.9076 18.4478 24.1167 18.4394C24.3259 18.431 24.5292 18.3686 24.707 18.2582C24.8848 18.1478 25.031 17.9933 25.1313 17.8096C25.2316 17.6259 25.2825 17.4194 25.2793 17.2101C25.276 17.0009 25.2185 16.796 25.1125 16.6156C25.0065 16.4351 24.8556 16.2852 24.6744 16.1805C24.4932 16.0758 24.288 16.0197 24.0788 16.0179C23.7587 16.0184 23.4518 16.1458 23.2255 16.3721C22.9991 16.5985 22.8717 16.9053 22.8713 17.2254C22.8641 17.4613 22.9281 17.6939 23.055 17.8929Z" fill="#333333"/>
<path d="M0 12.7987C0 15.5269 1.46437 17.9831 3.75187 19.6538C3.87954 19.7435 3.97468 19.8723 4.02302 20.0207C4.07135 20.1691 4.0703 20.3291 4.02 20.4769L3.71813 21.6019L3.53063 22.3013C3.49807 22.3854 3.47786 22.4738 3.47062 22.5638C3.47038 22.6113 3.47957 22.6585 3.49766 22.7025C3.51576 22.7465 3.54241 22.7865 3.57606 22.8202C3.60971 22.8538 3.64971 22.8805 3.69372 22.8986C3.73774 22.9167 3.78491 22.9259 3.8325 22.9256C3.90562 22.9256 3.97687 22.9069 4.04063 22.8713L6.41813 21.4969C6.59292 21.3924 6.79202 21.3355 6.99563 21.3319C7.10437 21.3319 7.21312 21.3488 7.31625 21.3787C8.30851 21.6635 9.33156 21.8271 10.3631 21.8662C10.1415 21.1041 10.0298 20.3143 10.0312 19.5206C10.0312 14.0156 15.2531 10.1081 20.9513 10.1081C21.045 10.1081 21.1388 10.1081 21.2325 10.1119C19.8506 6.42938 15.735 3.75 10.8675 3.75C4.8675 3.75 0 7.8 0 12.7987ZM8.685 9.88312C8.685 10.266 8.53289 10.6333 8.26214 10.904C7.99138 11.1748 7.62416 11.3269 7.24125 11.3269C6.85834 11.3269 6.49112 11.1748 6.22036 10.904C5.94961 10.6333 5.7975 10.266 5.7975 9.88312C5.7975 9.50022 5.94961 9.133 6.22036 8.86224C6.49112 8.59148 6.85834 8.43937 7.24125 8.43937C7.62416 8.43937 7.99138 8.59148 8.26214 8.86224C8.53289 9.133 8.685 9.50022 8.685 9.88312ZM15.9506 9.88312C15.9506 10.266 15.7985 10.6333 15.5278 10.904C15.257 11.1748 14.8898 11.3269 14.5069 11.3269C14.124 11.3269 13.7567 11.1748 13.486 10.904C13.2152 10.6333 13.0631 10.266 13.0631 9.88312C13.0631 9.50022 13.2152 9.133 13.486 8.86224C13.7567 8.59148 14.124 8.43937 14.5069 8.43937C14.8898 8.43937 15.257 8.59148 15.5278 8.86224C15.7985 9.133 15.9506 9.50022 15.9506 9.88312Z" fill="#333333"/>
</svg>
