<svg width="30" height="30" viewBox="0 0 30 30" fill="none" xmlns="http://www.w3.org/2000/svg">
<g clip-path="url(#clip0_9901_262)">
<path d="M29.3748 8.1336C29.2049 7.52764 28.874 6.97903 28.4173 6.5461C27.9477 6.09986 27.372 5.78065 26.7448 5.6186C24.3973 4.99985 14.9923 4.99985 14.9923 4.99985C11.0715 4.95524 7.15158 5.15144 3.2548 5.58735C2.62753 5.76137 2.053 6.08771 1.58229 6.53735C1.11979 6.98235 0.784795 7.5311 0.609795 8.13235C0.189411 10.397 -0.0148401 12.6965 -0.000205083 14.9999C-0.0152051 17.3011 0.188545 19.5999 0.609795 21.8674C0.781045 22.4661 1.11479 23.0124 1.57854 23.4536C2.04229 23.8949 2.6198 24.2136 3.2548 24.3824C5.63354 24.9999 14.9923 24.9999 14.9923 24.9999C18.9181 25.0445 22.843 24.8483 26.7448 24.4124C27.372 24.2503 27.9477 23.9311 28.4173 23.4849C28.8739 23.052 29.2044 22.5033 29.3735 21.8974C29.8049 19.6335 30.0146 17.3331 29.9998 15.0286C30.0322 12.7144 29.8228 10.4031 29.3748 8.13235V8.1336ZM12.0023 19.2799V10.7211L19.8273 15.0011L12.0023 19.2799Z" fill="#333333"/>
</g>
<defs>
<clipPath id="clip0_9901_262">
<rect width="30" height="30" fill="white"/>
</clipPath>
</defs>
</svg>
